<?xml version="1.0" encoding="iso-8859-1"?>
<!-- Generator: Adobe Illustrator 15.1.0, SVG Export Plug-In . SVG Version: 6.00 Build 0)  -->
<!DOCTYPE svg PUBLIC "-//W3C//DTD SVG 1.1//EN" "http://www.w3.org/Graphics/SVG/1.1/DTD/svg11.dtd">
<svg version="1.1" xmlns="http://www.w3.org/2000/svg" xmlns:xlink="http://www.w3.org/1999/xlink" x="0px" y="0px" width="274px"
	 height="45px" viewBox="0 0 274 45" style="enable-background:new 0 0 274 45;" xml:space="preserve">
<g id="&#x30EC;&#x30A4;&#x30E4;&#x30FC;_1">
	<rect style="fill:#FFFFFF;" width="45" height="44.986"/>
	<path style="fill:#E57F14;" d="M20.125,16.279"/>
	<path style="fill:#E57F14;" d="M25.075,27.642"/>
	<path style="fill:#E57F14;" d="M16.918,24.437"/>
	<path style="fill:#E57F14;" d="M45,44.986"/>
	<path style="fill:#E57F14;" d="M26.649,7.754c0,0-0.85-4.62-4.854-3.571c0,0-2.769,0.387-3.023,4.708c0,0-0.013,2.393,2.513,4.913
		c2.526,2.532,2.349,2.944,2.56,3.735"/>
	<path style="fill:#E57F14;" d="M26.649,7.754c0,0,3.164-3.473,6.008-0.46c0,0,2.146,1.792,0.067,5.593c0,0-1.243,2.027-4.726,2.842
		c-3.477,0.804-3.547,1.25-4.153,1.811"/>
	<path style="fill:#E57F14;" d="M8.695,17.758c0,0-4.626,0.846-3.579,4.86c0,0,0.383,2.764,4.712,3.01c0,0,2.387,0.023,4.912-2.508
		c2.525-2.519,2.943-2.342,3.738-2.56"/>
	<path style="fill:#E57F14;" d="M8.695,17.758c0,0-3.473-3.164-0.471-6.01c0,0,1.793-2.146,5.598-0.064c0,0,2.037,1.243,2.838,4.719
		c0.809,3.477,1.261,3.551,1.819,4.158"/>
	<path style="fill:#E57F14;" d="M36.718,25.733c0,0,4.62-0.855,3.577-4.857c0,0-0.387-2.768-4.718-3.023
		c0,0-2.381-0.012-4.907,2.508c-2.525,2.53-2.943,2.353-3.737,2.571"/>
	<path style="fill:#E57F14;" d="M36.718,25.733c0,0,3.474,3.163,0.466,5.999c0,0-1.788,2.147-5.594,0.075
		c0,0-2.035-1.254-2.844-4.729c-0.803-3.477-1.256-3.541-1.813-4.146"/>
	<path style="fill:#E57F14;" d="M18.698,35.713c0,0,0.849,4.619,4.853,3.571c0,0,2.769-0.387,3.018-4.709
		c0,0,0.018-2.381-2.507-4.91c-2.526-2.521-2.348-2.945-2.566-3.737"/>
	<path style="fill:#E57F14;" d="M18.698,35.713c0,0-3.166,3.473-6.014,0.461c0,0-2.141-1.782-0.068-5.594
		c0,0,1.249-2.027,4.726-2.842c3.483-0.803,3.552-1.248,4.153-1.811"/>
	<path style="fill:#E57F14;" d="M20.125,16.279"/>
	<path style="fill:#E57F14;" d="M25.075,27.642"/>
	<path style="fill:#E57F14;" d="M16.918,24.437"/>
	<path style="fill:#E57F14;" d="M45,44.986"/>
	<g>
		<path style="fill:#6DB131;" d="M13.639,26.895c0.306-0.146,0.625-0.299,0.991-0.425c2.208-0.754,6.054-1.761,7.875-4.491
			c-3.294,0.083-6.194,2.835-8.006,4.308C14.209,26.529,13.922,26.719,13.639,26.895z"/>
		<path style="fill:#6DB131;" d="M0,0v44.986L36.938,45c-3.466-1.906-6-7.505-6-7.505l2.247-0.793c0,0,4.669,7.601,7.949,8.289
			L45,44.986V0H0z M24.389,41.402c-5.089,1.252-6.683-2.197-6.683-2.197l-0.058-0.152l-0.116,0.104c0,0-3.181,2.075-6.835-1.67
			c0,0-3.506-4.06,0.574-8.834c0,0,0.554-0.673,1.623-1.35c-1.143,0.562-2.021,0.681-2.021,0.681
			c-6.209,0.935-7.804-4.184-7.804-4.184c-1.247-5.087,2.198-6.691,2.198-6.691l0.135-0.023l-0.087-0.139c0,0-2.08-3.183,1.67-6.837
			c0,0,4.067-3.506,8.836,0.575c0,0,0.679,0.556,1.349,1.621c-0.562-1.142-0.674-2.021-0.674-2.021
			c-0.94-6.201,4.183-7.807,4.183-7.807c5.09-1.24,6.684,2.198,6.684,2.198l0.062,0.131l0.111-0.072c0,0,3.179-2.085,6.834,1.669
			c0,0,3.507,4.062-0.575,8.835c0,0-1.139,1.416-3.358,2.173c-2.22,0.768-6.095,1.764-7.9,4.527l0.028,0.019
			c0.071,3.299,2.832,6.204,4.312,8.018c1.485,1.825,1.694,3.63,1.694,3.63C29.511,39.808,24.389,41.402,24.389,41.402z
			 M39.873,26.796l-0.14,0.023l0.086,0.149c0,0,2.079,3.174-1.67,6.827c0,0-4.068,3.505-8.837-0.574c0,0-1.421-1.139-2.179-3.352
			c-0.763-2.227-1.771-6.099-4.529-7.905l0.005-0.035c3.3-0.078,6.205-2.825,8.027-4.31c1.821-1.485,3.626-1.699,3.626-1.699
			c6.208-0.934,7.809,4.193,7.809,4.193C43.313,25.192,39.873,26.796,39.873,26.796z"/>
		<path style="fill:#6DB131;" d="M17.576,13.036c0.152,0.308,0.299,0.633,0.425,1c0.759,2.214,1.764,6.058,4.498,7.873
			c-0.083-3.288-2.833-6.183-4.309-8.004C17.95,13.612,17.754,13.321,17.576,13.036z"/>
		<path style="fill:#6DB131;" d="M22.501,21.934l0.037,0.006c-0.014-0.009-0.025-0.022-0.039-0.031
			C22.5,21.917,22.501,21.925,22.501,21.934z"/>
		<path style="fill:#6DB131;" d="M17.17,12.307c0.115,0.235,0.249,0.477,0.406,0.729C17.444,12.77,17.309,12.528,17.17,12.307z"/>
	</g>
	<g>
		<path style="fill:#E57F14;" d="M23.846,17.539c0.606-0.561,0.676-1.007,4.153-1.811c3.483-0.815,4.726-2.842,4.726-2.842
			c2.079-3.801-0.067-5.593-0.067-5.593c-2.844-3.012-6.008,0.46-6.008,0.46s-0.85-4.62-4.854-3.571c0,0-2.769,0.387-3.023,4.708
			c0,0-0.013,2.393,2.513,4.913C23.812,16.335,23.634,16.748,23.846,17.539z"/>
		<path style="fill:#E57F14;" d="M18.479,20.561c-0.558-0.606-1.01-0.681-1.819-4.158c-0.801-3.476-2.838-4.719-2.838-4.719
			c-3.805-2.083-5.598,0.064-5.598,0.064c-3.002,2.846,0.471,6.01,0.471,6.01s-4.626,0.846-3.579,4.86c0,0,0.383,2.764,4.712,3.01
			c0,0,2.387,0.023,4.912-2.508C17.267,20.602,17.685,20.778,18.479,20.561z"/>
		<path style="fill:#E57F14;" d="M40.295,20.876c0,0-0.387-2.768-4.718-3.023c0,0-2.381-0.012-4.907,2.508
			c-2.525,2.53-2.943,2.353-3.737,2.571c0.557,0.605,1.01,0.67,1.813,4.146c0.809,3.476,2.844,4.729,2.844,4.729
			c3.806,2.072,5.594-0.075,5.594-0.075c3.007-2.836-0.466-5.999-0.466-5.999S41.338,24.878,40.295,20.876z"/>
		<path style="fill:#E57F14;" d="M21.496,25.928c-0.602,0.563-0.67,1.008-4.153,1.811c-3.478,0.814-4.726,2.842-4.726,2.842
			c-2.073,3.812,0.068,5.594,0.068,5.594c2.849,3.012,6.014-0.461,6.014-0.461s0.849,4.619,4.853,3.571c0,0,2.769-0.387,3.018-4.709
			c0,0,0.018-2.381-2.507-4.91C21.536,27.144,21.714,26.72,21.496,25.928z"/>
	</g>
	<path style="fill:#E57F14;" d="M168.252,38.884c0,0-0.297,0.653-0.952,0.772c-0.658,0.12-11.896,0-11.896,0
		s-0.776,0.061-0.776-0.772c0-0.839,11.001-23.584,11.001-23.584h-17.916c0,0-0.746,0.15-0.746-0.746v-3.936
		c0,0-0.088-0.717,0.688-0.717c0.771,0,30.766,0,30.766,0s1.581,0.3,1.581,1.732C180,13.093,168.252,38.884,168.252,38.884z
		 M124.634,21.083v17.503c0,0-0.236,1.07-1.042,1.131h-10.975c-0.504,0-1.638-0.119-1.578-0.892V23.559h-9.54
		c-0.745,0-0.805,0-0.805,0c-0.478-1.045,0.477-1.343,0.477-1.343c19.856-12.194,19.916-12.314,19.916-12.314h14.131
		c0,0,2.206,0.596,0.956,2.954L124.634,21.083z M87.845,14.764H56.837c0,0-0.506,0.029-0.506-0.538v-3.368
		c0-0.537,0.088-0.958,0.956-0.958h28.081c0,0,2.837,0.717,2.776,4.444C88.143,14.345,88.204,14.764,87.845,14.764z M80.985,38.884
		c0,0-0.415,0.772-0.833,0.772H67.45c0,0-1.433,0-0.714-1.489l7.392-13.299c0,0,0-0.595-0.535-0.536H55.378
		c0,0-1.017,0.058-1.017-0.716c0-0.565,0-4.529,0-4.529s-0.148-0.598,1.017-0.598h32.346c0,0,1.164-0.091,1.164,1.191
		C88.888,20.935,80.985,38.884,80.985,38.884z"/>
</g>
<g id="&#x30EC;&#x30A4;&#x30E4;&#x30FC;_2">
	<rect x="229" style="fill:#056836;" width="45" height="45"/>
	<path style="fill:#FFFFFF;" d="M245.342,30.96h0.994v2.272h1.625v0.78h-2.033c0,0-0.207,0-0.365-0.105
		c-0.15-0.093-0.221-0.259-0.221-0.259V30.96z"/>
	<rect x="248.889" y="30.96" style="fill:#FFFFFF;" width="1.037" height="3.03"/>
	<path style="fill:#FFFFFF;" d="M250.998,33.99h1.006v-1.174h1.67v-0.76h-1.664v-0.413h1.664v-0.725h-2.109
		c0,0-0.305,0.041-0.414,0.154c-0.113,0.104-0.152,0.34-0.152,0.34V33.99z"/>
	<path style="fill:#FFFFFF;" d="M257.133,33.99v-0.761h-1.613v-0.441h1.613v-0.754h-1.613v-0.391h1.582v-0.727h-2.021
		c0,0-0.264,0.026-0.365,0.131c-0.105,0.088-0.186,0.176-0.186,0.264v2.239c0,0,0.055,0.177,0.186,0.305
		c0.131,0.105,0.313,0.135,0.453,0.135H257.133z"/>
	<rect x="231.922" y="40.892" style="fill:#FFFFFF;" width="39.154" height="0.176"/>
	<rect x="231.922" y="41.666" style="fill:#FFFFFF;" width="39.154" height="0.413"/>
	<rect x="231.922" y="3.95" style="fill:#FFFFFF;" width="39.154" height="0.177"/>
	<rect x="231.922" y="2.93" style="fill:#FFFFFF;" width="39.154" height="0.433"/>
	<path style="fill:#FFFFFF;" d="M240.666,21.335l-0.564,1.118l-0.094-0.063c0-0.011,0-0.041,0-0.043
		c0-0.088-0.059-0.176-0.193-0.264c-0.418-0.274-0.895-0.425-1.434-0.425c-0.264,0-0.475,0.027-0.658,0.095
		c-0.133,0.045-0.244,0.108-0.328,0.197c-0.084,0.094-0.121,0.2-0.121,0.309c0,0.176,0.098,0.306,0.316,0.356
		c0.113,0.037,0.352,0.083,0.703,0.112l0.549,0.059c0.33,0.03,0.594,0.083,0.775,0.13c0.215,0.063,0.391,0.146,0.535,0.264
		c0.162,0.102,0.293,0.261,0.381,0.439c0.09,0.177,0.133,0.382,0.133,0.587c0,0.338-0.109,0.631-0.32,0.886
		c-0.207,0.243-0.502,0.416-0.91,0.517c-0.307,0.083-0.617,0.125-0.967,0.125c-0.625,0-1.242-0.135-1.846-0.444
		c-0.131-0.053-0.219-0.088-0.238-0.088c-0.025,0-0.07,0.026-0.148,0.08l-0.096-0.054l0.518-1.166l0.098,0.052v0.044
		c0,0.114,0.043,0.211,0.145,0.299c0.16,0.13,0.383,0.242,0.689,0.344c0.311,0.096,0.615,0.138,0.895,0.138
		c0.305,0,0.566-0.042,0.779-0.151c0.129-0.066,0.217-0.14,0.303-0.24c0.061-0.09,0.09-0.178,0.09-0.289
		c0-0.152-0.082-0.27-0.244-0.328c-0.109-0.046-0.355-0.088-0.715-0.134l-0.535-0.049c-0.352-0.039-0.605-0.081-0.748-0.117
		c-0.143-0.028-0.301-0.087-0.439-0.15c-0.219-0.113-0.379-0.257-0.492-0.475c-0.119-0.176-0.166-0.394-0.166-0.642
		c0-0.4,0.131-0.719,0.402-0.982c0.371-0.352,0.912-0.527,1.619-0.527c0.307,0,0.582,0.042,0.84,0.094
		c0.258,0.074,0.596,0.175,0.979,0.346c0.139,0.045,0.213,0.086,0.246,0.086c0.045,0,0.104-0.041,0.176-0.086L240.666,21.335z"/>
	<path style="fill:#FFFFFF;" d="M245.412,25.157l0.352,0.354c0.088,0.101,0.176,0.15,0.229,0.146
		c0.035-0.006,0.08-0.016,0.123-0.058l0.072,0.068l-0.836,0.765l-0.07-0.067c0.043-0.05,0.07-0.096,0.07-0.132
		c0-0.035-0.059-0.112-0.158-0.24l-0.396-0.443c-0.307,0.132-0.658,0.185-1.055,0.185c-0.615,0-1.127-0.145-1.537-0.46
		c-0.484-0.378-0.734-0.905-0.734-1.554s0.25-1.155,0.734-1.549c0.414-0.31,0.922-0.465,1.537-0.465s1.125,0.155,1.537,0.465
		c0.484,0.394,0.734,0.9,0.734,1.549C246.014,24.304,245.809,24.775,245.412,25.157 M244.797,24.522
		c0.176-0.229,0.264-0.497,0.264-0.814c0-0.353-0.109-0.653-0.348-0.88c-0.238-0.264-0.574-0.394-0.971-0.394
		c-0.395,0-0.727,0.13-0.971,0.394c-0.242,0.227-0.348,0.527-0.348,0.892c0,0.361,0.105,0.657,0.348,0.91
		c0.244,0.253,0.576,0.38,0.971,0.38c0.176,0,0.352-0.026,0.527-0.097c-0.264-0.323-0.512-0.503-0.748-0.563v-0.066
		c0.135-0.094,0.293-0.148,0.441-0.148C244.217,24.136,244.49,24.262,244.797,24.522"/>
	<path style="fill:#FFFFFF;" d="M250.99,22.136v2.057c0,0.467-0.094,0.806-0.281,1.024c-0.293,0.345-0.857,0.517-1.688,0.517
		c-0.537,0-0.982-0.083-1.324-0.243c-0.246-0.118-0.41-0.292-0.5-0.52c-0.082-0.209-0.121-0.473-0.121-0.778v-2.057
		c0-0.061-0.025-0.121-0.049-0.154c-0.033-0.032-0.092-0.074-0.17-0.094v-0.104h1.367v0.104c-0.088,0.02-0.146,0.06-0.176,0.094
		c-0.043,0.033-0.049,0.094-0.049,0.154v1.871c0,0.215,0.008,0.374,0.049,0.491c0.045,0.122,0.105,0.219,0.207,0.283
		c0.189,0.156,0.453,0.229,0.809,0.229c0.357,0,0.639-0.072,0.83-0.229c0.088-0.064,0.146-0.161,0.182-0.283
		c0.039-0.117,0.064-0.276,0.064-0.491v-1.871c0-0.061-0.025-0.121-0.053-0.154c-0.021-0.032-0.09-0.074-0.174-0.094v-0.104h1.299
		v0.104c-0.088,0.02-0.146,0.06-0.176,0.094C250.994,22.015,250.99,22.075,250.99,22.136"/>
	<path style="fill:#FFFFFF;" d="M254.838,24.688h-1.779l-0.195,0.426c-0.057,0.093-0.068,0.176-0.068,0.233
		c0,0.118,0.07,0.184,0.221,0.207v0.099h-1.428v-0.099c0.088-0.001,0.152-0.04,0.197-0.076c0.043-0.038,0.088-0.107,0.145-0.23
		l1.414-2.858c0.059-0.104,0.076-0.203,0.076-0.281c0-0.097-0.053-0.161-0.186-0.22v-0.104h1.494v0.104
		c-0.129,0.056-0.178,0.126-0.178,0.237c0,0.076,0.018,0.174,0.086,0.269l1.455,2.778c0.088,0.161,0.143,0.251,0.189,0.293
		c0.045,0.046,0.117,0.084,0.205,0.089v0.099h-1.58v-0.099c0.162-0.015,0.227-0.089,0.227-0.207c0-0.063-0.016-0.152-0.086-0.264
		L254.838,24.688z M254.553,24.146l-0.619-1.238l-0.611,1.238H254.553z"/>
	<path style="fill:#FFFFFF;" d="M258.35,24.062v1.232c0,0.083,0.025,0.129,0.051,0.171c0.021,0.046,0.09,0.073,0.172,0.089v0.1
		h-1.371v-0.1c0.076-0.01,0.143-0.043,0.166-0.089c0.043-0.042,0.053-0.088,0.053-0.164v-3.165c0-0.061-0.01-0.121-0.053-0.154
		c-0.021-0.032-0.088-0.074-0.166-0.095v-0.103h2.537c0.33,0,0.574,0.025,0.748,0.055c0.176,0.027,0.336,0.099,0.473,0.186
		c0.273,0.185,0.406,0.477,0.406,0.892c0,0.31-0.086,0.558-0.254,0.732c-0.172,0.175-0.449,0.299-0.83,0.372l0.732,1.023
		c0.131,0.199,0.244,0.327,0.314,0.379c0.08,0.085,0.168,0.126,0.281,0.131v0.1h-1.629v-0.1c0.111-0.029,0.186-0.084,0.186-0.146
		c0-0.052-0.033-0.125-0.119-0.236l-0.77-1.11H258.35z M258.35,23.359h1.389c0.221,0,0.379-0.007,0.484-0.056
		c0.131-0.074,0.211-0.192,0.211-0.382c0-0.155-0.049-0.27-0.16-0.336c-0.096-0.063-0.271-0.098-0.535-0.098h-1.389V23.359z"/>
	<path style="fill:#FFFFFF;" d="M263.594,24.017v0.938h2.453c0.064,0,0.117-0.017,0.154-0.051c0.041-0.023,0.084-0.093,0.096-0.172
		h0.1v1.143h-0.1c-0.01-0.072-0.055-0.139-0.09-0.167c-0.041-0.027-0.096-0.054-0.16-0.054h-3.6v-0.1
		c0.074-0.009,0.141-0.043,0.168-0.089c0.025-0.042,0.053-0.088,0.053-0.164v-3.165c0-0.061-0.023-0.121-0.051-0.154
		c-0.025-0.032-0.092-0.074-0.17-0.094v-0.104h3.488c0.082,0,0.131-0.011,0.176-0.051c0.039-0.023,0.061-0.09,0.088-0.172h0.088
		v1.145h-0.088c-0.027-0.079-0.049-0.142-0.088-0.171c-0.045-0.022-0.094-0.047-0.176-0.047h-2.342v0.855h1.463
		c0.061,0,0.123-0.025,0.156-0.053c0.035-0.023,0.063-0.091,0.098-0.171h0.098v1.114h-0.098c-0.035-0.088-0.059-0.132-0.094-0.176
		c-0.031-0.03-0.096-0.042-0.16-0.042H263.594z"/>
	<path style="fill:#FFFFFF;" d="M238.338,14.729l0.658,0.98l-0.088,0.059c-0.066-0.059-0.121-0.092-0.162-0.092
		c-0.045,0-0.148,0.064-0.35,0.167c-0.395,0.226-0.719,0.394-0.99,0.471c-0.277,0.071-0.607,0.11-0.967,0.11
		c-0.74,0-1.354-0.175-1.838-0.53c-0.273-0.193-0.496-0.448-0.658-0.754c-0.182-0.352-0.275-0.74-0.275-1.145
		c0-0.571,0.162-1.075,0.494-1.492c0.498-0.64,1.266-0.96,2.283-0.96c0.361,0,0.688,0.04,0.957,0.123
		c0.268,0.086,0.594,0.227,0.994,0.462c0.201,0.111,0.305,0.156,0.35,0.156c0.041,0,0.096-0.023,0.162-0.09l0.088,0.074
		l-0.658,0.979l-0.088-0.063c0-0.03,0-0.067,0-0.094c0-0.062-0.025-0.128-0.088-0.194c-0.045-0.043-0.15-0.126-0.309-0.209
		c-0.395-0.23-0.834-0.338-1.283-0.338c-0.547,0-0.969,0.136-1.293,0.408c-0.367,0.313-0.566,0.717-0.566,1.238
		c0,0.494,0.199,0.918,0.566,1.23c0.324,0.264,0.746,0.394,1.293,0.394c0.449,0,0.889-0.108,1.283-0.345
		c0.158-0.079,0.264-0.141,0.309-0.208c0.063-0.063,0.088-0.115,0.088-0.192c0-0.017,0-0.046,0-0.088L238.338,14.729z"/>
	<path style="fill:#FFFFFF;" d="M241.012,14.7v0.944h2.453c0.061,0,0.119-0.023,0.158-0.05c0.033-0.025,0.076-0.092,0.092-0.172h0.1
		v1.143h-0.1c-0.016-0.077-0.059-0.141-0.092-0.168c-0.039-0.027-0.098-0.055-0.158-0.055h-3.6v-0.102
		c0.074-0.006,0.139-0.047,0.17-0.09c0.02-0.036,0.049-0.091,0.049-0.158v-3.165c0-0.062-0.027-0.12-0.049-0.154
		c-0.027-0.041-0.092-0.079-0.17-0.095v-0.104h3.482c0.088,0,0.131-0.019,0.176-0.051c0.043-0.022,0.066-0.09,0.088-0.17h0.088
		v1.141h-0.088c-0.021-0.078-0.045-0.145-0.088-0.168c-0.045-0.027-0.088-0.051-0.176-0.051h-2.336v0.857h1.457
		c0.066,0,0.127-0.029,0.162-0.053c0.033-0.03,0.059-0.088,0.098-0.17h0.092v1.106h-0.092c-0.039-0.084-0.061-0.13-0.092-0.175
		c-0.037-0.026-0.098-0.043-0.168-0.043H241.012z"/>
	<path style="fill:#FFFFFF;" d="M245.795,13.796v2.189c0,0.075,0.014,0.128,0.053,0.164c0.025,0.045,0.092,0.081,0.172,0.093v0.101
		h-1.293v-0.101c0.072-0.006,0.141-0.048,0.17-0.091c0.033-0.036,0.053-0.091,0.053-0.158v-3.165c0-0.062-0.02-0.12-0.053-0.154
		c-0.027-0.041-0.092-0.081-0.17-0.095v-0.104h1.479v0.104c-0.09,0.014-0.133,0.063-0.133,0.136c0,0.052,0.029,0.113,0.094,0.182
		l2.08,2.067v-2.136c0-0.062-0.021-0.12-0.049-0.154c-0.029-0.041-0.094-0.083-0.172-0.095v-0.104h1.289v0.104
		c-0.08,0.012-0.143,0.054-0.17,0.095c-0.041,0.034-0.051,0.093-0.051,0.154v3.157c0,0.075,0.01,0.123,0.051,0.163
		c0.027,0.046,0.09,0.08,0.17,0.094v0.101h-1.396v-0.101c0.107-0.006,0.164-0.048,0.164-0.123c0-0.024-0.023-0.059-0.037-0.101
		c-0.039-0.034-0.098-0.091-0.205-0.197L245.795,13.796z"/>
	<path style="fill:#FFFFFF;" d="M252.512,13.176v2.81c0,0.075,0.02,0.123,0.053,0.163c0.023,0.046,0.086,0.08,0.17,0.095v0.099
		h-1.371v-0.099c0.072-0.007,0.141-0.049,0.166-0.092c0.035-0.036,0.053-0.091,0.053-0.158v-2.817h-1.139
		c-0.064,0-0.123,0.026-0.162,0.054c-0.035,0.026-0.078,0.09-0.092,0.166h-0.098v-1.141h0.098c0.014,0.075,0.057,0.139,0.09,0.166
		c0.033,0.036,0.1,0.054,0.16,0.054h3.205c0.074,0,0.135-0.018,0.164-0.05c0.041-0.022,0.086-0.091,0.098-0.17h0.096v1.141h-0.096
		c-0.012-0.076-0.057-0.14-0.098-0.166c-0.029-0.027-0.09-0.054-0.164-0.054H252.512z"/>
	<path style="fill:#FFFFFF;" d="M255.932,14.753v1.232c0,0.075,0.027,0.122,0.055,0.163c0.023,0.046,0.09,0.08,0.166,0.094v0.101
		h-1.371v-0.101c0.08-0.007,0.143-0.048,0.17-0.091c0.041-0.035,0.053-0.091,0.053-0.158v-3.165c0-0.062-0.012-0.12-0.047-0.154
		c-0.029-0.041-0.09-0.081-0.176-0.095v-0.104h2.541c0.33,0,0.574,0.027,0.746,0.053c0.176,0.029,0.338,0.099,0.471,0.188
		c0.277,0.181,0.412,0.478,0.412,0.884c0,0.31-0.088,0.564-0.256,0.739c-0.17,0.176-0.451,0.301-0.83,0.373l0.73,1.028
		c0.133,0.19,0.25,0.32,0.324,0.376c0.072,0.078,0.162,0.12,0.27,0.126v0.101h-1.623v-0.101c0.113-0.025,0.184-0.082,0.184-0.144
		c0-0.053-0.033-0.126-0.121-0.236l-0.768-1.109H255.932z M255.932,14.053h1.391c0.219,0,0.377-0.014,0.482-0.058
		c0.133-0.074,0.217-0.191,0.217-0.384c0-0.154-0.057-0.275-0.162-0.335c-0.098-0.07-0.273-0.102-0.537-0.102h-1.391V14.053z"/>
	<path style="fill:#FFFFFF;" d="M262.99,15.375h-1.766l-0.211,0.422c-0.045,0.1-0.068,0.176-0.068,0.239
		c0,0.112,0.068,0.185,0.221,0.206v0.101h-1.426v-0.101c0.086-0.006,0.164-0.038,0.203-0.076c0.041-0.033,0.096-0.105,0.146-0.235
		l1.406-2.858c0.057-0.097,0.088-0.195,0.088-0.273c0-0.099-0.064-0.166-0.189-0.22v-0.104h1.506v0.104
		c-0.129,0.054-0.197,0.129-0.197,0.229c0,0.084,0.023,0.176,0.08,0.276l1.479,2.775c0.076,0.158,0.135,0.246,0.18,0.288
		c0.043,0.046,0.121,0.088,0.219,0.094v0.101h-1.582v-0.101c0.139-0.014,0.221-0.094,0.221-0.204c0-0.065-0.035-0.153-0.088-0.263
		L262.99,15.375z M262.727,14.83l-0.643-1.231l-0.598,1.231H262.727z"/>
	<path style="fill:#FFFFFF;" d="M266.531,15.646h2.17c0.068,0,0.129-0.024,0.162-0.052c0.035-0.023,0.061-0.091,0.102-0.172h0.09
		v1.144h-0.09c-0.041-0.077-0.063-0.146-0.098-0.171c-0.033-0.024-0.098-0.052-0.166-0.052h-3.316v-0.101
		c0.074-0.007,0.141-0.048,0.168-0.091c0.031-0.035,0.055-0.091,0.055-0.158v-3.165c0-0.062-0.023-0.12-0.053-0.154
		c-0.027-0.041-0.09-0.081-0.17-0.095v-0.104h1.371v0.104c-0.08,0.012-0.146,0.054-0.17,0.095c-0.035,0.034-0.055,0.093-0.055,0.154
		V15.646z"/>
</g>
</svg>
